<svg width="40" height="40" viewBox="0 0 40 40" fill="none" xmlns="http://www.w3.org/2000/svg">
<path fill-rule="evenodd" clip-rule="evenodd" d="M20 40C8.95432 40 1.18355e-05 31.0457 1.23183e-05 20C1.28011e-05 8.9543 8.95432 3.91406e-07 20 8.74228e-07C31.0457 1.35705e-06 40 8.95431 40 20C40 31.0457 31.0457 40 20 40ZM10.7692 32.3077C10.7692 34.4319 12.4912 36.1538 14.6154 36.1538C16.7396 36.1538 18.4615 34.4319 18.4615 32.3077C18.4615 30.1835 16.7396 28.4615 14.6154 28.4615C12.4912 28.4615 10.7692 30.1835 10.7692 32.3077ZM14.6154 11.5385C12.4912 11.5385 10.7692 9.81648 10.7692 7.69231C10.7692 5.56814 12.4912 3.84615 14.6154 3.84616C16.7396 3.84616 18.4615 5.56814 18.4615 7.69231C18.4615 9.81648 16.7396 11.5385 14.6154 11.5385ZM6.92309 15.3846C9.04726 15.3846 10.7692 17.1066 10.7692 19.2308C10.7692 21.3549 9.04726 23.0769 6.92308 23.0769C4.79891 23.0769 3.07693 21.3549 3.07693 19.2308C3.07693 17.1066 4.79891 15.3846 6.92309 15.3846ZM27.9008 35.6642C26.1275 36.4953 24.227 36.9231 22.3077 36.9231L22.3077 20.3846L22.3077 3.84615C24.227 3.84615 26.1275 4.27393 27.9008 5.10507C29.674 5.93621 31.2852 7.15442 32.6423 8.69016C33.9995 10.2259 35.0761 12.0491 35.8106 14.0556C36.545 16.0622 36.9231 18.2128 36.9231 20.3846C36.9231 22.5565 36.545 24.7071 35.8106 26.7136C35.0761 28.7201 33.9995 30.5433 32.6423 32.0791C31.2852 33.6148 29.674 34.833 27.9008 35.6642Z" fill="url(#paint0_linear_101_968)"/>
<defs>
<linearGradient id="paint0_linear_101_968" x1="40" y1="1.74846e-06" x2="1.96599" y2="44.8656" gradientUnits="userSpaceOnUse">
<stop stop-color="#FFEE58"/>
<stop offset="1" stop-color="#FF8F00"/>
</linearGradient>
</defs>
</svg>
